<?xml version="1.0" encoding="UTF-8"?>
<svg version="1.1" xmlns="http://www.w3.org/2000/svg" width="200" height="200">
<path d="M0 0 C66 0 132 0 200 0 C200 66 200 132 200 200 C134 200 68 200 0 200 C0 134 0 68 0 0 Z " fill="#FEFEFE" transform="translate(0,0)"/>
<path d="M0 0 C0.67352715 -0.00467997 1.3470543 -0.00935994 2.04099137 -0.01418173 C4.30275956 -0.02616846 6.56392593 -0.01666058 8.82569885 -0.00723267 C10.44524998 -0.01129679 12.06479834 -0.01663777 13.68434143 -0.02316284 C18.08725339 -0.03686234 22.48995493 -0.03152669 26.89287066 -0.02202559 C31.49679309 -0.0144413 36.10069725 -0.02147129 40.70462036 -0.02618408 C48.43788392 -0.03164578 56.1710616 -0.02443975 63.90431213 -0.01016235 C72.84811142 0.0061592 81.7917055 0.00088094 90.7354998 -0.01564157 C98.40946251 -0.02925153 106.08336341 -0.03117833 113.75733429 -0.02332556 C118.34277813 -0.0186456 122.9281255 -0.01803293 127.51356316 -0.02793503 C131.82524859 -0.03659509 136.1366693 -0.03060044 140.44832611 -0.01325226 C142.03178785 -0.00928202 143.61527183 -0.01043065 145.19872475 -0.01704025 C147.35853363 -0.02522507 149.51749159 -0.01497228 151.67724609 0 C152.8864292 0.00113108 154.09561232 0.00226215 155.34143734 0.00342751 C158.68862842 0.41629133 160.10653024 0.92998643 162.40211487 3.38095093 C162.80374177 6.47196271 162.94870352 9.20909127 162.91969299 12.30282593 C162.92670227 13.21528076 162.93371155 14.1277356 162.94093323 15.06784058 C162.95856334 18.08918536 162.94687261 21.10959633 162.93336487 24.13095093 C162.93605834 26.22698141 162.93993954 28.32301067 162.94496155 30.41903687 C162.9508634 34.81401453 162.94227138 39.20866725 162.92359924 43.60360718 C162.9008095 49.24325423 162.91392888 54.88213993 162.9378891 60.52175903 C162.9523284 64.85057331 162.94774963 69.17920645 162.93737793 73.50802612 C162.93470548 75.58769826 162.93799852 77.66738673 162.94729614 79.74703979 C162.95743088 82.65149636 162.94200368 85.55471204 162.91969299 88.45907593 C162.92778992 89.32254639 162.93588684 90.18601685 162.94422913 91.07565308 C162.86127966 96.89070692 162.86127966 96.89070692 160.79067326 99.10146523 C157.61339012 100.8034493 155.27907766 100.75853268 151.67724609 100.76190186 C151.00215895 100.76658183 150.32707181 100.7712618 149.63152748 100.77608359 C147.37053031 100.7880451 145.11013797 100.77857233 142.84913635 100.76913452 C141.22781521 100.77319969 139.60649683 100.77854126 137.98518372 100.7850647 C133.582398 100.79874961 129.179823 100.79343512 124.77703357 100.78392744 C120.17264912 100.77633823 115.56828285 100.78337428 110.96389771 100.78808594 C103.23241431 100.79354509 95.50101686 100.7863471 87.76954651 100.77206421 C78.82513847 100.75573161 69.88093552 100.76102996 60.93653244 100.77754343 C53.26171594 100.79114686 45.58696127 100.79308373 37.91213661 100.78522742 C33.32618062 100.78054534 28.7403211 100.7799408 24.15437126 100.78983688 C19.84431709 100.79848788 15.53452802 100.79251902 11.22450256 100.77515411 C9.64061995 100.7711795 8.05671511 100.77233993 6.47284126 100.77894211 C4.31492393 100.78710944 2.15786242 100.77689566 0 100.76190186 C-1.81320913 100.76020524 -1.81320913 100.76020524 -3.66304874 100.75847435 C-6.59788513 100.38095093 -6.59788513 100.38095093 -8.48644352 99.10146523 C-10.5276508 95.94167144 -10.01171412 92.10557006 -9.98606873 88.45907593 C-9.99132568 87.54662109 -9.99658264 86.63416626 -10.0019989 85.69406128 C-10.0152209 82.67285123 -10.00645297 79.6521665 -9.99632263 76.63095093 C-9.99834273 74.53492125 -10.00125363 72.43889226 -10.00502014 70.34286499 C-10.00944648 65.94794021 -10.0030024 61.55319823 -9.98899841 57.15829468 C-9.97190646 51.51876272 -9.98174597 45.87965906 -9.99971581 40.24014282 C-10.01054522 35.91135417 -10.00711116 31.58266742 -9.99933243 27.25387573 C-9.99732809 25.174204 -9.99979784 23.09452307 -10.00677109 21.01486206 C-10.01437164 18.11059995 -10.00280085 15.20703592 -9.98606873 12.30282593 C-9.99214142 11.43935547 -9.99821411 10.57588501 -10.00447083 9.68624878 C-9.94272484 3.91476363 -9.94272484 3.91476363 -8.48644352 1.66043663 C-5.66823203 -0.24888284 -3.38261868 0.00316511 0 0 Z " fill="#FEFEFE" transform="translate(23.597885131835938,49.619049072265625)"/>
<path d="M0 0 C1.06154297 -0.02416992 1.06154297 -0.02416992 2.14453125 -0.04882812 C6.66864982 -0.05304053 9.60657082 0.41830825 13.125 3.3125 C16.02044883 7.26083184 16.50320332 10.08040722 16.51318359 14.93530273 C16.51844055 15.57988434 16.52369751 16.22446594 16.52911377 16.88858032 C16.54225957 19.00800192 16.53359467 21.12666521 16.5234375 23.24609375 C16.52546006 24.7267318 16.52837302 26.20736888 16.53213501 27.68800354 C16.53655121 30.78729765 16.53015119 33.88633187 16.51611328 36.9855957 C16.49903649 40.94781703 16.50885702 44.90942799 16.52683067 48.87162685 C16.53770053 51.92837576 16.53420732 54.98498134 16.5264473 58.0417347 C16.52445334 59.50209692 16.52687617 60.96247238 16.53388596 62.42281914 C16.54155199 64.46899463 16.52982558 66.51419909 16.51318359 68.56030273 C16.51079681 69.72214584 16.50841003 70.88398895 16.50595093 72.08103943 C16.071967 75.76235861 15.05260545 78.16055925 13.125 81.3125 C8.78939839 84.23579326 5.23081545 84.72124308 0.0625 84.6875 C-1.71833984 84.69910156 -1.71833984 84.69910156 -3.53515625 84.7109375 C-7.22791637 84.2703977 -9.00972239 83.66629824 -11.875 81.3125 C-14.50525131 76.92547701 -15.25533707 73.66268522 -15.27905273 68.57617188 C-15.28591599 67.93144424 -15.29277924 67.28671661 -15.29985046 66.62245178 C-15.31803076 64.50848869 -15.31429451 62.39527386 -15.30859375 60.28125 C-15.31315932 58.80204021 -15.31846601 57.32283254 -15.32447815 55.84362793 C-15.33339161 52.75031898 -15.33100591 49.65726846 -15.32104492 46.56396484 C-15.30954848 42.60949381 -15.32978495 38.65591487 -15.35896206 34.70156097 C-15.37734885 31.64909244 -15.3770269 28.59683682 -15.37132454 25.54432678 C-15.37117167 24.08674364 -15.37718734 22.62914576 -15.38961601 21.1716156 C-15.40457529 19.13012418 -15.3938168 17.09026997 -15.37670898 15.04882812 C-15.37654282 13.89000122 -15.37637665 12.73117432 -15.37620544 11.53723145 C-14.76106071 7.57942013 -13.35612731 5.4240361 -10.875 2.3125 C-7.17289441 -0.1555704 -4.28387746 -0.01929675 0 0 Z " fill="#FCFCFC" transform="translate(163.875,57.6875)"/>
<path d="M0 0 C1.01301772 -0.00657338 1.01301772 -0.00657338 2.04650044 -0.01327956 C4.32033005 -0.02668518 6.59412088 -0.03285036 8.86798096 -0.03897095 C10.49398983 -0.04687056 12.11999694 -0.05513942 13.7460022 -0.06375122 C19.09556398 -0.08998864 24.44513366 -0.105281 29.79473877 -0.11953735 C31.63522599 -0.12489641 33.47571315 -0.13027391 35.31620026 -0.13566971 C42.97159013 -0.15730134 50.62697788 -0.17603838 58.28239059 -0.1872921 C69.25877055 -0.20353298 80.2347966 -0.23671078 91.21104312 -0.29369295 C98.92576313 -0.33237944 106.64038844 -0.35192328 114.35520291 -0.35721266 C118.96432627 -0.36086803 123.5730723 -0.37290866 128.18209076 -0.4053154 C132.51929017 -0.43537328 136.85588351 -0.44171619 141.19316483 -0.42993164 C142.78387586 -0.42971071 144.37461483 -0.43803208 145.96522903 -0.45558548 C148.14014557 -0.47827784 150.31286446 -0.4699853 152.48779297 -0.45410156 C154.311812 -0.45906678 154.311812 -0.45906678 156.1726799 -0.46413231 C160.63175041 0.36464902 162.28939161 1.9911162 165.49786377 5.15390015 C167.15764922 8.47347105 166.65422182 12.1885391 166.65899658 15.8387146 C166.66396149 16.73805725 166.66892639 17.6373999 166.67404175 18.56399536 C166.68868355 21.54839841 166.695469 24.53274829 166.70098877 27.5171814 C166.7067389 29.5874278 166.71249665 31.65767417 166.71826172 33.72792053 C166.72877769 38.07328541 166.73461634 42.41863175 166.73809814 46.76400757 C166.74358175 52.33270708 166.7676045 57.90116194 166.7960701 63.46978474 C166.81469275 67.74801855 166.8199019 72.02619342 166.82143402 76.30446434 C166.82446231 78.35737634 166.83249675 80.41028727 166.8456192 82.46315956 C166.86267049 85.33592966 166.86080154 88.20810195 166.85430908 91.0809021 C166.86352386 91.92940231 166.87273865 92.77790253 166.88223267 93.65211487 C166.84941247 98.28712157 166.61152664 101.46590655 163.49786377 105.15390015 C159.49104954 108.10195028 156.60290687 108.53304611 151.67292786 108.54830933 C150.99910299 108.55440043 150.32527812 108.56049153 149.63103431 108.56676722 C147.38017245 108.583375 145.12987767 108.57862483 142.87896729 108.57382202 C141.26236383 108.58116364 139.64576561 108.58975014 138.0291748 108.5994873 C133.64279784 108.62170148 129.25660873 108.62463407 124.87018323 108.62273979 C121.20710709 108.6226201 117.54407076 108.63118383 113.8810057 108.63951731 C105.23886041 108.65875073 96.59681171 108.66163529 87.95465088 108.65487671 C79.04142787 108.64823441 70.12861854 108.67110793 61.21547943 108.70819044 C53.56012224 108.73888349 45.90489816 108.75024795 38.24948066 108.74635363 C33.67844205 108.74428585 29.10772539 108.74976971 24.53674507 108.77424622 C20.23803381 108.79650464 15.93999543 108.79464344 11.64128113 108.7743187 C10.06509822 108.7709071 8.48887009 108.77600431 6.91274834 108.79030228 C4.75764342 108.80850126 2.60481994 108.79574574 0.44978333 108.77536011 C-0.75495856 108.77607262 -1.95970045 108.77678513 -3.20094967 108.77751923 C-7.63683562 107.93954686 -9.30489236 106.30023363 -12.50213623 103.15390015 C-14.17080448 99.81656364 -13.67687227 96.06428537 -13.69500732 92.39315796 C-13.70727356 91.03192307 -13.70727356 91.03192307 -13.7197876 89.64318848 C-13.74465955 86.63114079 -13.76116277 83.61914031 -13.77557373 80.60702515 C-13.78089741 79.57928734 -13.78622108 78.55154953 -13.79170609 77.49266815 C-13.81844627 72.05227911 -13.83781787 66.61191307 -13.85223389 61.17147827 C-13.86887829 55.55114878 -13.91365217 49.93140605 -13.96460533 44.31129837 C-13.998259 39.99099045 -14.00980933 35.67082206 -14.01546097 31.3503952 C-14.02217927 29.27874012 -14.0374163 27.20709441 -14.06135178 25.13556671 C-14.09296364 22.233965 -14.09304586 19.3339491 -14.08563232 16.43222046 C-14.11024033 15.15083694 -14.11024033 15.15083694 -14.13534546 13.84356689 C-14.09140625 9.63747799 -13.78172463 6.96930025 -11.09066772 3.63650513 C-7.21207169 -0.08337306 -5.29358345 0.02428763 0 0 Z M-8.39069462 5.43338585 C-10.43190189 8.59317964 -9.91596522 12.42928101 -9.89031982 16.07577515 C-9.89557678 16.98822998 -9.90083374 17.90068481 -9.90625 18.84078979 C-9.919472 21.86199985 -9.91070407 24.88268458 -9.90057373 27.90390015 C-9.90259383 29.99992982 -9.90550473 32.09595882 -9.90927124 34.19198608 C-9.91369758 38.58691086 -9.9072535 42.98165285 -9.89324951 47.3765564 C-9.87615755 53.01608835 -9.88599707 58.65519202 -9.9039669 64.29470825 C-9.91479632 68.6234969 -9.91136225 72.95218366 -9.90358353 77.28097534 C-9.90157919 79.36064708 -9.90404894 81.440328 -9.91102219 83.51998901 C-9.91862273 86.42425113 -9.90705195 89.32781516 -9.89031982 92.23202515 C-9.89639252 93.09549561 -9.90246521 93.95896606 -9.90872192 94.84860229 C-9.95449198 99.06708762 -9.95449198 99.06708762 -8.39069462 102.87441444 C-5.57248313 104.78373392 -3.28686978 104.53168597 0.0957489 104.53485107 C0.76927605 104.53953105 1.4428032 104.54421102 2.13674027 104.54903281 C4.39850846 104.56101954 6.65967483 104.55151165 8.92144775 104.54208374 C10.54099889 104.54614786 12.16054725 104.55148885 13.78009033 104.55801392 C18.18300229 104.57171342 22.58570383 104.56637777 26.98861957 104.55687666 C31.59254199 104.54929238 36.19644615 104.55632236 40.80036926 104.56103516 C48.53363282 104.56649686 56.26681051 104.55929082 64.00006104 104.54501343 C72.94386032 104.52869188 81.8874544 104.53397014 90.8312487 104.55049264 C98.50521141 104.5641026 106.17911231 104.5660294 113.85308319 104.55817664 C118.43852703 104.55349668 123.0238744 104.55288401 127.60931206 104.5627861 C131.92099749 104.57144616 136.2324182 104.56545151 140.54407501 104.54810333 C142.12753675 104.54413309 143.71102073 104.54528172 145.29447365 104.55189133 C147.45428253 104.56007614 149.61324049 104.54982335 151.772995 104.53485107 C152.98217811 104.53372 154.19136122 104.53258892 155.43718624 104.53142357 C158.78437732 104.11855974 160.20227914 103.60486464 162.49786377 101.15390015 C162.89949068 98.06288836 163.04445242 95.3257598 163.01544189 92.23202515 C163.02245117 91.31957031 163.02946045 90.40711548 163.03668213 89.4670105 C163.05431224 86.44566571 163.04262151 83.42525474 163.02911377 80.40390015 C163.03180724 78.30786967 163.03568844 76.2118404 163.04071045 74.11581421 C163.0466123 69.72083654 163.03802028 65.32618383 163.01934814 60.9312439 C162.9965584 55.29159684 163.00967778 49.65271115 163.033638 44.01309204 C163.04807731 39.68427776 163.04349854 35.35564463 163.03312683 31.02682495 C163.03045438 28.94715282 163.03374742 26.86746435 163.04304504 24.78781128 C163.05317979 21.88335472 163.03775258 18.98013904 163.01544189 16.07577515 C163.02353882 15.21230469 163.03163574 14.34883423 163.03997803 13.459198 C163.08486878 9.05063551 163.08486878 9.05063551 160.88642216 5.43338585 C157.70913902 3.73140177 155.37482656 3.77631839 151.772995 3.77294922 C151.09790785 3.76826925 150.42282071 3.76358927 149.72727638 3.75876749 C147.46627922 3.74680597 145.20588687 3.75627874 142.94488525 3.76571655 C141.32356411 3.76165139 139.70224573 3.75630982 138.08093262 3.74978638 C133.6781469 3.73610146 129.2755719 3.74141596 124.87278247 3.75092363 C120.26839802 3.75851285 115.66403175 3.7514768 111.05964661 3.74676514 C103.32816321 3.74130598 95.59676576 3.74850397 87.86529541 3.76278687 C78.92088737 3.77911946 69.97668442 3.77382111 61.03228134 3.75730765 C53.35746484 3.74370422 45.68271017 3.74176734 38.00788552 3.74962366 C33.42192952 3.75430573 28.83607 3.75491027 24.25012016 3.74501419 C19.94006599 3.7363632 15.63027693 3.74233206 11.32025146 3.75969696 C9.73636885 3.76367158 8.15246401 3.76251114 6.56859016 3.75590897 C4.41067283 3.74774163 2.25361132 3.75795541 0.0957489 3.77294922 C-1.11305718 3.7740803 -2.32186327 3.77521137 -3.56729984 3.77637672 C-6.4709338 3.92579294 -6.4709338 3.92579294 -8.39069462 5.43338585 Z " fill="#0C0C0C" transform="translate(23.50213623046875,45.846099853515625)"/>
<path d="M0 0 C1.06154297 -0.02416992 1.06154297 -0.02416992 2.14453125 -0.04882812 C6.66864982 -0.05304053 9.60657082 0.41830825 13.125 3.3125 C16.02044883 7.26083184 16.50320332 10.08040722 16.51318359 14.93530273 C16.51844055 15.57988434 16.52369751 16.22446594 16.52911377 16.88858032 C16.54225957 19.00800192 16.53359467 21.12666521 16.5234375 23.24609375 C16.52546006 24.7267318 16.52837302 26.20736888 16.53213501 27.68800354 C16.53655121 30.78729765 16.53015119 33.88633187 16.51611328 36.9855957 C16.49903649 40.94781703 16.50885702 44.90942799 16.52683067 48.87162685 C16.53770053 51.92837576 16.53420732 54.98498134 16.5264473 58.0417347 C16.52445334 59.50209692 16.52687617 60.96247238 16.53388596 62.42281914 C16.54155199 64.46899463 16.52982558 66.51419909 16.51318359 68.56030273 C16.51079681 69.72214584 16.50841003 70.88398895 16.50595093 72.08103943 C16.071967 75.76235861 15.05260545 78.16055925 13.125 81.3125 C8.78939839 84.23579326 5.23081545 84.72124308 0.0625 84.6875 C-1.71833984 84.69910156 -1.71833984 84.69910156 -3.53515625 84.7109375 C-7.22791637 84.2703977 -9.00972239 83.66629824 -11.875 81.3125 C-14.50525131 76.92547701 -15.25533707 73.66268522 -15.27905273 68.57617188 C-15.28591599 67.93144424 -15.29277924 67.28671661 -15.29985046 66.62245178 C-15.31803076 64.50848869 -15.31429451 62.39527386 -15.30859375 60.28125 C-15.31315932 58.80204021 -15.31846601 57.32283254 -15.32447815 55.84362793 C-15.33339161 52.75031898 -15.33100591 49.65726846 -15.32104492 46.56396484 C-15.30954848 42.60949381 -15.32978495 38.65591487 -15.35896206 34.70156097 C-15.37734885 31.64909244 -15.3770269 28.59683682 -15.37132454 25.54432678 C-15.37117167 24.08674364 -15.37718734 22.62914576 -15.38961601 21.1716156 C-15.40457529 19.13012418 -15.3938168 17.09026997 -15.37670898 15.04882812 C-15.37654282 13.89000122 -15.37637665 12.73117432 -15.37620544 11.53723145 C-14.76106071 7.57942013 -13.35612731 5.4240361 -10.875 2.3125 C-7.17289441 -0.1555704 -4.28387746 -0.01929675 0 0 Z M-10.875 8.3125 C-11.81250858 13.35807141 -11.72002035 18.38903399 -11.671875 23.5 C-11.67591962 25.00545821 -11.68174512 26.51091259 -11.68927002 28.01635742 C-11.69810288 31.16720999 -11.68530332 34.31704003 -11.65722656 37.46777344 C-11.62303783 41.50021242 -11.64272833 45.53025569 -11.67866135 49.56260681 C-11.70037731 52.67006375 -11.69342717 55.77695566 -11.67789459 58.88442993 C-11.67390142 60.37074062 -11.67877142 61.85710316 -11.69277191 63.34335327 C-12.04574693 71.17288894 -12.04574693 71.17288894 -9.58374023 78.3374939 C-6.45613368 81.06644023 -3.46155787 81.99621491 0.625 81.9375 C1.5221875 81.95039063 2.419375 81.96328125 3.34375 81.9765625 C7.33233052 81.02423288 9.91932643 79.77150618 12.125 76.3125 C13.06250858 71.26692859 12.97002035 66.23596601 12.921875 61.125 C12.92591962 59.61954179 12.93174512 58.11408741 12.93927002 56.60864258 C12.94810288 53.45779001 12.93530332 50.30795997 12.90722656 47.15722656 C12.87303783 43.12478758 12.89272833 39.09474431 12.92866135 35.06239319 C12.95037731 31.95493625 12.94342717 28.84804434 12.92789459 25.74057007 C12.92390142 24.25425938 12.92877142 22.76789684 12.94277191 21.28164673 C13.29574693 13.45211106 13.29574693 13.45211106 10.83374023 6.2875061 C7.70613368 3.55855977 4.71155787 2.62878509 0.625 2.6875 C-0.2721875 2.67460938 -1.169375 2.66171875 -2.09375 2.6484375 C-6.08233052 3.60076712 -8.66932643 4.85349382 -10.875 8.3125 Z " fill="#141414" transform="translate(163.875,57.6875)"/>
</svg>
